HIERARCHY
ROOT SimulationBone
{
	OFFSET 0.000000 0.000000 0.000000
	CHANNELS 6 Xposition Yposition Zposition Zrotation Yrotation Xrotation 
	JOINT Hips
	{
		OFFSET 0.000000 0.000000 0.000000
		CHANNELS 6 Xposition Yposition Zposition Zrotation Yrotation Xrotation 
		JOINT RightUpLeg
		{
			OFFSET 0.103459 1.857814 10.548504
			CHANNELS 3 Zrotation Yrotation Xrotation
			JOINT RightLeg
			{
				OFFSET 43.500000 -0.000004 -0.000011
				CHANNELS 3 Zrotation Yrotation Xrotation
				JOINT RightFoot
				{
					OFFSET 42.372196 -0.000004 0.000004
					CHANNELS 3 Zrotation Yrotation Xrotation
					JOINT RightToe
					{
						OFFSET 17.300003 0.000001 -0.000008
						CHANNELS 3 Zrotation Yrotation Xrotation
						End Site
						{
							OFFSET 0.000000 0.000000 0.000000
						}
					}
				}
			}
		}
		JOINT LeftUpLeg
		{
			OFFSET 0.103457 1.857841 -10.548511
			CHANNELS 3 Zrotation Yrotation Xrotation
			JOINT LeftLeg
			{
				OFFSET 43.500042 -0.000038 0.000000
				CHANNELS 3 Zrotation Yrotation Xrotation
				JOINT LeftFoot
				{
					OFFSET 42.372269 -0.000023 0.000011
					CHANNELS 3 Zrotation Yrotation Xrotation
					JOINT LeftToe
					{
						OFFSET 17.300003 -0.000001 0.000023
						CHANNELS 3 Zrotation Yrotation Xrotation
						End Site
						{
							OFFSET 0.000000 0.000000 0.000000
						}
					}
				}
			}
		}
		JOINT Spine
		{
			OFFSET 6.901971 -2.603744 -0.000012
			CHANNELS 3 Zrotation Yrotation Xrotation
			JOINT Spine1
			{
				OFFSET 12.588097 -0.000002 0.000018
				CHANNELS 3 Zrotation Yrotation Xrotation
				JOINT Spine2
				{
					OFFSET 12.343208 0.000014 -0.000019
					CHANNELS 3 Zrotation Yrotation Xrotation
					JOINT Neck
					{
						OFFSET 25.832897 0.000008 0.000016
						CHANNELS 3 Zrotation Yrotation Xrotation
						JOINT Head
						{
							OFFSET 11.766600 -0.000006 0.000008
							CHANNELS 3 Zrotation Yrotation Xrotation
							End Site
							{
								OFFSET 0.000000 0.000000 0.000000
							}
						}
					}
					JOINT RightShoulder
					{
						OFFSET 19.745909 -1.480356 6.000120
						CHANNELS 3 Zrotation Yrotation Xrotation
						JOINT RightArm
						{
							OFFSET 11.284115 -0.000000 -0.000025
							CHANNELS 3 Zrotation Yrotation Xrotation
							JOINT RightForeArm
							{
								OFFSET 33.000057 0.000003 0.000029
								CHANNELS 3 Zrotation Yrotation Xrotation
								JOINT RightHand
								{
									OFFSET 25.200006 0.000029 0.000011
									CHANNELS 3 Zrotation Yrotation Xrotation
									End Site
									{
										OFFSET 0.000000 0.000000 0.000000
									}
								}
							}
						}
					}
					JOINT LeftShoulder
					{
						OFFSET 19.746088 -1.480379 -6.000049
						CHANNELS 3 Zrotation Yrotation Xrotation
						JOINT LeftArm
						{
							OFFSET 11.284159 -0.000019 -0.000011
							CHANNELS 3 Zrotation Yrotation Xrotation
							JOINT LeftForeArm
							{
								OFFSET 33.000076 -0.000001 0.000001
								CHANNELS 3 Zrotation Yrotation Xrotation
								JOINT LeftHand
								{
									OFFSET 25.199781 0.000139 0.000430
									CHANNELS 3 Zrotation Yrotation Xrotation
									End Site
									{
										OFFSET 0.000000 0.000000 0.000000
									}
								}
							}
						}
					}
				}
			}
		}
	}
}
MOTION
Frames: 11
Frame Time: 0.033333
79.977400 0.000000 520.226554 180.000000 -8.473745 180.000000 1.086835 88.971313 -0.459187 96.763684 -1.196005 -177.668360 -163.335546 4.060394 -178.417109 -18.562591 -2.147368 5.335241 89.748563 -2.417409 7.031804 21.454557 0.003108 0.000018 164.375483 -0.451399 -178.550188 -8.297389 2.150204 5.711510 69.548927 -4.251441 -0.262282 21.454555 -0.003092 0.000001 8.165155 -0.018910 -1.372821 6.317043 0.036901 -2.744599 5.999350 0.020195 -2.744776 17.713034 -5.123510 -4.752995 -10.350292 9.858698 -7.975858 156.344970 -71.895883 22.925407 -7.117997 48.207994 25.755337 -91.435456 -5.395242 2.788251 -11.314131 4.981082 7.562782 179.520007 78.203514 1.010178 -7.067624 -54.342382 -28.253122 -86.319015 6.070461 -2.567022 -16.092132 16.051295 -2.072984 
77.731771 0.000000 520.404020 180.000000 -8.849515 180.000000 1.333048 89.175301 -0.277013 96.479267 -0.357051 -177.661602 -163.304455 3.104508 -179.288081 -20.588068 -1.427798 5.877830 88.463545 -2.845202 6.405987 21.454563 0.003108 0.000018 165.456046 -1.601806 179.743586 -8.036109 1.930738 7.261270 65.881710 -5.173816 0.375381 21.454555 -0.003092 0.000000 7.988432 0.272364 -1.301156 5.957214 0.611079 -2.586648 5.639449 0.595315 -2.590292 17.879441 -5.162744 -4.824720 -10.018140 9.555745 -7.921636 155.463712 -71.626363 23.842543 -9.362785 48.098093 25.027872 -93.070056 -4.266060 2.782380 -11.750830 6.268458 5.702523 176.819937 78.013519 -1.744887 -8.374789 -53.658666 -28.113646 -88.529053 4.715088 -2.569772 -15.765912 16.632629 0.931376 
75.479440 0.000000 520.592847 180.000000 -9.173848 180.000000 1.612687 89.382751 -0.143145 96.392644 0.694829 -178.178484 -163.477217 2.122100 179.700269 -23.363622 -0.545398 6.460259 86.906555 -3.470884 4.948227 21.454560 0.003108 0.000017 166.269344 -2.560697 179.382597 -9.073158 2.712965 7.545255 65.924200 -5.834382 -0.809884 21.454553 -0.003092 0.000000 7.880039 0.622142 -1.152288 5.734697 1.300361 -2.272615 5.416794 1.286481 -2.280426 17.816519 -5.666656 -4.768707 -9.598432 9.623145 -7.844699 155.383088 -71.379192 23.938765 -11.232600 48.158557 23.969931 -94.925491 -2.835207 2.765447 -12.059000 6.873567 4.568089 172.628073 78.276604 -6.006211 -9.650877 -53.174088 -28.049466 -90.956208 3.156651 -2.568336 -14.857021 17.537202 4.901043 
73.220917 0.000000 520.794072 180.000000 -9.444391 180.000000 1.933090 89.549179 0.082918 96.456089 1.864048 -178.768534 -164.452541 0.978303 178.455672 -27.802847 0.593477 7.205676 84.634609 -4.404325 2.724726 21.454555 0.003108 0.000016 167.041237 -3.939805 179.765975 -10.813639 3.052037 7.085635 67.624631 -5.988077 -2.264469 21.454551 -0.003092 0.000000 7.823293 0.990422 -1.030546 5.616802 2.029456 -2.012364 5.298689 2.017131 -2.024586 17.633376 -6.208199 -4.692993 -9.110257 9.295805 -7.632061 154.954480 -71.294805 24.382455 -12.530841 48.443369 23.581641 -96.976781 -2.147159 2.809271 -12.598430 6.268266 3.228218 168.442014 78.489187 -10.257328 -11.545669 -52.423556 -28.143624 -93.604553 1.936873 -2.600743 -14.271569 18.910381 7.890486 
70.956500 0.000000 521.009940 180.000000 -9.669919 180.000000 2.124517 89.704712 0.299646 96.393093 2.663381 -179.081198 -166.859418 -0.249695 178.134626 -34.136599 1.082122 7.814304 81.109391 -5.706041 -0.962474 21.454563 0.003108 0.000019 167.899560 -4.785796 -179.852131 -12.164226 3.514210 6.784026 69.578174 -6.026174 -3.214085 21.454551 -0.003092 0.000000 7.749502 1.237805 -1.049805 5.464990 2.523546 -2.040796 5.146792 2.511041 -2.056002 17.519529 -6.445013 -4.461104 -8.655111 8.756203 -7.198833 153.711495 -71.333628 25.653007 -12.832261 48.755936 23.005073 -99.374171 -1.494480 2.871006 -13.433401 5.383886 2.357574 165.391009 78.605594 -13.355525 -14.538855 -51.586288 -28.236260 -96.258669 1.459762 -2.685484 -14.298671 19.996888 8.263606 
68.688108 0.000000 521.235653 180.000000 -9.837386 180.000000 2.257841 89.760193 0.578649 96.572521 3.489332 -178.868771 -170.211169 -2.223604 177.278926 -42.200641 1.529399 9.045437 76.918455 -8.096435 -5.851371 21.454558 0.003108 0.000017 169.093190 -5.725296 -179.869958 -13.250818 3.889654 7.002510 71.555377 -6.275101 -3.794252 21.454553 -0.003092 0.000000 7.735698 1.454462 -1.155220 5.431343 2.961240 -2.242022 5.113062 2.947513 -2.259868 17.405393 -6.289833 -4.232223 -8.180290 8.380182 -6.817036 152.546210 -71.781648 26.819038 -13.483254 49.112967 21.654275 -101.919092 -0.903527 2.943365 -14.067229 4.225192 3.180202 165.175025 78.741610 -13.569427 -18.253182 -50.667805 -27.744952 -98.571746 1.163401 -2.767658 -15.109989 21.931597 4.567718 
66.416830 0.000000 521.464663 180.000000 -9.932594 180.000000 2.340958 89.721191 0.866425 96.849224 4.383482 -178.451475 -174.231924 -4.488007 176.718386 -51.132179 2.077363 10.130192 73.000666 -10.879792 -11.056541 21.454570 0.003107 0.000022 170.327842 -6.788406 179.743723 -14.336637 4.268850 7.529613 73.622377 -6.588538 -3.965713 21.454555 -0.003092 0.000000 7.737889 1.661590 -1.219856 5.430417 3.378271 -2.361835 5.112014 3.363812 -2.382203 17.523948 -6.028410 -4.205734 -7.689549 8.298792 -6.719233 152.057401 -71.683785 27.324783 -13.814508 48.252452 19.920849 -104.599300 -0.348446 3.023752 -14.409244 4.048418 4.212428 166.885974 78.780440 -11.829259 -21.047165 -49.647843 -26.320607 -100.681612 0.901034 -2.842995 -16.294700 24.440799 2.477313 
64.142641 0.000000 521.699250 180.000000 -9.948556 180.000000 2.495109 89.759842 1.115100 97.288351 4.996837 -177.947202 -178.181249 -6.331409 176.416109 -59.245204 2.817934 10.431120 69.052325 -13.242498 -15.488907 21.454557 0.003108 0.000015 172.123117 -7.603395 179.774172 -14.782601 4.522573 7.760426 75.478904 -6.722115 -4.224872 21.454548 -0.003092 0.000000 7.760995 1.805282 -1.243364 5.473462 3.667024 -2.401617 5.154970 3.652322 -2.423733 17.999741 -5.800978 -4.366185 -7.581612 8.258119 -6.845475 152.224003 -71.441532 27.168838 -14.852103 46.678995 18.158775 -106.805908 0.046081 3.093687 -14.209340 4.077842 4.536775 168.180062 78.664224 -10.518129 -22.541718 -48.544620 -24.224728 -102.462495 0.830203 -2.916861 -18.401897 21.760546 -1.960751 
61.860182 0.000000 521.948604 180.000000 -9.888970 180.000000 2.640590 89.796944 1.325291 97.838261 5.449817 -177.545960 178.051079 -7.729004 176.225957 -66.068973 3.566810 9.727991 65.272887 -13.992606 -16.948858 21.454553 0.003108 0.000014 174.180137 -8.382507 179.571971 -14.921090 4.622554 7.996394 77.139077 -6.859491 -4.495138 21.454553 -0.003092 0.000000 7.817040 1.900966 -1.209739 5.585166 3.857792 -2.328074 5.266564 3.843529 -2.351349 18.532544 -5.756494 -4.515152 -7.528806 8.427137 -7.020605 153.021878 -71.279205 26.362010 -16.907764 44.804986 16.654650 -108.512807 0.250435 3.154315 -14.639556 3.812456 5.214311 169.081060 78.691832 -9.600230 -24.230492 -47.129627 -23.027665 -104.147995 0.812476 -2.989935 -20.287234 21.902301 -6.009846 
59.575635 0.000000 522.213116 180.000000 -9.760505 180.000000 2.717613 89.800980 1.475589 98.413405 5.601797 -177.489379 174.721471 -8.409501 176.748439 -71.103997 3.391523 8.119888 67.463418 -11.876563 -15.547059 21.454558 0.003109 0.000021 176.095596 -8.883102 179.428605 -15.384933 4.601477 7.948411 78.814209 -6.788342 -4.754852 21.454551 -0.003092 0.000000 7.886409 1.893288 -1.114081 5.727357 3.839117 -2.134708 5.408747 3.826022 -2.157873 19.090966 -5.895884 -4.576635 -7.252938 8.930693 -7.173277 153.158004 -71.259391 26.223816 -18.776000 43.213258 15.417622 -110.055098 0.391591 3.211695 -15.238377 3.434961 7.295339 168.291995 78.617704 -10.405705 -25.455504 -45.362712 -22.618136 -105.621403 0.722826 -3.048384 -21.605113 23.325036 -8.677994 
57.292409 0.000000 522.483900 180.000000 -9.567983 180.000000 2.732528 89.716858 1.558097 98.886687 5.724269 -177.765962 171.589911 -8.840391 176.891531 -73.898590 3.167252 5.688509 71.990631 -8.487586 -12.949332 21.454565 0.003108 0.000022 177.688150 -9.296005 179.272166 -16.262137 4.550443 7.692014 80.575707 -6.560757 -5.002682 21.454551 -0.003092 0.000000 7.943103 1.860334 -0.956259 5.846627 3.766383 -1.818680 5.527955 3.755196 -1.841418 19.680825 -6.200112 -4.622655 -6.940641 9.391597 -7.286889 153.161501 -71.240000 26.221489 -20.146896 41.780715 14.536123 -111.627202 0.575861 3.266935 -15.247757 3.258028 8.780510 166.078973 78.634240 -12.654930 -26.048612 -43.991800 -22.404453 -106.992694 0.616021 -3.100903 -22.710647 24.822005 -10.907839 
